<svg width="1011" height="994" xmlns="http://www.w3.org/2000/svg" xmlns:xlink="http://www.w3.org/1999/xlink" overflow="hidden"><defs><clipPath id="clip0"><rect x="24" y="-99" width="1011" height="994"/></clipPath></defs><g clip-path="url(#clip0)" transform="translate(-24 99)"><rect x="29" y="-94" width="192" height="187" stroke="#FFFFFF" stroke-width="8" stroke-miterlimit="8" fill="#FFFFFF"/><rect x="298" y="-94" width="193" height="187" stroke="#FFFFFF" stroke-width="8" stroke-miterlimit="8" fill="#FFFFFF"/><rect x="568" y="-94" width="192" height="187" stroke="#FFFFFF" stroke-width="8" stroke-miterlimit="8" fill="#FFFFFF"/><rect x="838" y="-94" width="192" height="187" stroke="#FFFFFF" stroke-width="8" stroke-miterlimit="8" fill="#FFFFFF"/><rect x="29" y="171" width="192" height="187" stroke="#FFFFFF" stroke-width="8" stroke-miterlimit="8" fill="#FFFFFF"/><rect x="298" y="171" width="193" height="187" stroke="#FFFFFF" stroke-width="8" stroke-miterlimit="8" fill="#FFFFFF"/><rect x="568" y="171" width="192" height="187" stroke="#FFFFFF" stroke-width="8" stroke-miterlimit="8" fill="#FFFFFF"/><rect x="838" y="171" width="192" height="187" stroke="#FFFFFF" stroke-width="8" stroke-miterlimit="8" fill="#FFFFFF"/><rect x="28" y="437" width="193" height="187" stroke="#FFFFFF" stroke-width="8" stroke-miterlimit="8" fill="#FFFFFF"/><rect x="298" y="437" width="192" height="187" stroke="#FFFFFF" stroke-width="8" stroke-miterlimit="8" fill="none"/><rect x="568" y="437" width="192" height="187" stroke="#FFFFFF" stroke-width="8" stroke-miterlimit="8" fill="none"/><rect x="837" y="437" width="193" height="187" stroke="#FFFFFF" stroke-width="8" stroke-miterlimit="8" fill="none"/><rect x="28" y="703" width="193" height="187" stroke="#FFFFFF" stroke-width="8" stroke-miterlimit="8" fill="none"/><rect x="298" y="703" width="192" height="187" stroke="#FFFFFF" stroke-width="8" stroke-miterlimit="8" fill="none"/><rect x="568" y="703" width="192" height="187" stroke="#FFFFFF" stroke-width="8" stroke-miterlimit="8" fill="none"/><rect x="837" y="703" width="193" height="187" stroke="#FFFFFF" stroke-width="8" stroke-miterlimit="8" fill="none"/></g></svg>