<?xml version="1.0" encoding="UTF-8" standalone="no"?>
<svg
   id="Layer_1"
   data-name="Layer 1"
   viewBox="0 0 50.999999 51.000002"
   version="1.1"
   sodipodi:docname="jetbrains-grayscale.svg"
   inkscape:version="1.1 (c68e22c387, 2021-05-23)"
   width="51"
   height="51"
   xmlns:inkscape="http://www.inkscape.org/namespaces/inkscape"
   xmlns:sodipodi="http://sodipodi.sourceforge.net/DTD/sodipodi-0.dtd"
   xmlns="http://www.w3.org/2000/svg"
   xmlns:svg="http://www.w3.org/2000/svg"
   xmlns:rdf="http://www.w3.org/1999/02/22-rdf-syntax-ns#"
   xmlns:cc="http://creativecommons.org/ns#"
   xmlns:dc="http://purl.org/dc/elements/1.1/">
  <defs
     id="defs24" />
  <sodipodi:namedview
     id="namedview22"
     pagecolor="#ffffff"
     bordercolor="#666666"
     borderopacity="1.0"
     inkscape:pageshadow="2"
     inkscape:pageopacity="0.0"
     inkscape:pagecheckerboard="0"
     showgrid="false"
     inkscape:zoom="6.7100298"
     inkscape:cx="-29.582581"
     inkscape:cy="44.932736"
     inkscape:window-width="2560"
     inkscape:window-height="1377"
     inkscape:window-x="-8"
     inkscape:window-y="-8"
     inkscape:window-maximized="1"
     inkscape:current-layer="Layer_1"
     fit-margin-top="0"
     fit-margin-left="0"
     fit-margin-right="0"
     fit-margin-bottom="0" />
  <title
     id="title2">logo-grey</title>
  <path
     id="_Path_"
     style="display:inline"
     d="M 0,0 V 51 H 51 V 0 Z m 7.900391,6.298828 h 2.300781 v 5.300781 A 2.79543,2.79543 0 0 1 7.101563,14.699218 3.026,3.026 0 0 1 4.201172,13.40039 L 5.701172,12 A 1.70271,1.70271 0 0 0 7,12.798828 c 0.6,0 0.900391,-0.399219 0.900391,-1.199219 z m 2.800781,0.101562 h 6.699219 V 8.298828 H 13 v 1.300781 h 4 v 1.800781 h -4 v 1.298828 h 4.5 v 2 h -6.699219 z m 7.199219,0 h 7.300781 v 2 h -2.5 v 6.298828 H 20.400391 V 8.40039 h -2.5 z M 42.800781,16.5 a 5.33072,5.33072 0 0 1 3.400391,1.099609 L 45,19.199218 A 4.55346,4.55346 0 0 0 42.701172,18.40039 c -0.6,0 -0.800781,0.2 -0.800781,0.5 0,0.4 0.30039,0.498828 1.40039,0.798828 1.900001,0.4 3.09961,0.99961 3.09961,2.59961 C 46.400391,23.998828 45.1,25 43,25 a 5.29336,5.29336 0 0 1 -3.898437,-1.300782 l 1.298828,-1.5 a 3.94219,3.94219 0 0 0 2.701172,1 c 0.6,0 1,-0.199609 1,-0.599609 0,-0.4 -0.300391,-0.500781 -1.400391,-0.800781 -1.8,-0.4 -3.099609,-0.89961 -3.099609,-2.59961 0,-1.5 1.199218,-2.699218 3.199218,-2.699218 z m -38.40039,0.09961 H 8.701172 A 3.7023,3.7023 0 0 1 11,17.298828 a 1.97822,1.97822 0 0 1 0.5,1.40039 1.95538,1.95538 0 0 1 -1.298828,1.900391 1.94762,1.94762 0 0 1 1.599609,2 c 0,1.4 -1.199609,2.300781 -3.099609,2.300781 H 4.400391 Z m 7.800781,0 h 3.900391 A 3.51463,3.51463 0 0 1 18.800781,17.5 2.48948,2.48948 0 0 1 19.5,19.40039 2.76053,2.76053 0 0 1 17.800781,22 l 1.28711,1.865234 3.113281,-7.265625 h 2.199219 l 3.5,8.400391 h -2.5 l -0.59961,-1.5 H 21.601563 L 21,25 h -2.398437 l 0.04297,-0.09961 h -1.443359 l -1.701172,-2.5 h -1 v 2.5 h -2.298828 z m 16,0 H 30.5 v 8.300781 h -2.298828 z m 2.900391,0 h 2.099609 L 36.601563,21 v -4.400391 h 2.298828 v 8.300781 h -2 l -3.5,-4.5 V 25 H 31.101563 Z M 6.701172,18.5 V 20 h 1.400391 c 0.7,-0.1 1.099609,-0.300782 1.099609,-0.800782 0,-0.5 -0.4,-0.699218 -1,-0.699218 z M 14.5,18.599609 v 2 H 16 c 0.8,0 1.201172,-0.4 1.201172,-1 0,-0.7 -0.501172,-1 -1.201172,-1 z m 8.800781,0.699219 -0.90039,2.300781 h 1.800781 z M 6.601563,21.599609 v 1.5 h 1.798828 c 0.7,0 1.099609,-0.300781 1.099609,-0.800781 0,-0.5 -0.399609,-0.699219 -1.099609,-0.699219 z M 4.400391,41.40039 H 23.5 v 3.199219 H 4.400391 Z" />
  <metadata
     id="metadata383">
    <rdf:RDF>
      <cc:Work
         rdf:about="">
        <dc:title>logo-grey</dc:title>
      </cc:Work>
    </rdf:RDF>
  </metadata>
</svg>
