<?xml version="1.0" standalone="no"?>
<!DOCTYPE svg PUBLIC "-//W3C//DTD SVG 20010904//EN"
 "http://www.w3.org/TR/2001/REC-SVG-20010904/DTD/svg10.dtd">
<svg version="1.0" xmlns="http://www.w3.org/2000/svg"
 width="256.000000pt" height="237.000000pt" viewBox="0 0 256.000000 237.000000"
 preserveAspectRatio="xMidYMid meet">

<g transform="translate(0.000000,237.000000) scale(0.100000,-0.100000)"
fill="#000000" stroke="none">
<path d="M10 1422 c0 -891 1 -950 18 -964 40 -36 76 -38 897 -40 727 -2 819 0
896 15 224 44 407 140 535 281 69 75 112 143 162 258 l37 83 3 658 2 657
-1275 0 -1275 0 0 -948z m390 459 l0 -200 56 30 c48 25 67 29 135 29 88 0 134
-17 181 -67 50 -53 70 -116 76 -240 l5 -113 -35 0 -35 0 -5 108 c-7 161 -37
215 -137 242 -52 14 -129 0 -172 -31 -51 -36 -63 -72 -69 -204 l-5 -120 -32
-3 -33 -3 0 385 0 386 35 0 35 0 0 -199z m690 -351 l0 -210 -35 0 -35 0 0 210
0 210 35 0 35 0 0 -210z m450 0 l0 -210 -35 0 -35 0 0 210 0 210 35 0 35 0 0
-210z m551 182 c91 -47 148 -155 134 -251 -10 -68 -37 -122 -80 -160 -61 -54
-90 -61 -235 -61 l-130 0 0 -75 c0 -148 58 -217 180 -217 53 0 98 16 151 53
12 9 22 8 43 -6 l27 -18 -23 -24 c-12 -13 -46 -35 -75 -49 -46 -23 -62 -26
-137 -23 -75 4 -89 7 -127 34 -24 17 -57 52 -73 78 -26 42 -30 61 -35 145 l-6
97 -47 3 c-46 3 -48 5 -48 32 0 27 2 29 48 32 l47 3 5 130 c6 141 18 180 76
239 72 72 207 89 305 38z m-1693 -659 l2 -173 -35 0 -35 0 0 176 0 175 33 -3
32 -3 3 -172z m450 0 l2 -173 -35 0 -35 0 0 176 0 175 33 -3 32 -3 3 -172z
m243 92 c8 -124 54 -187 146 -201 140 -21 233 73 233 233 l0 54 33 -3 32 -3 5
-123 c5 -120 6 -125 33 -147 29 -25 39 -85 15 -85 -22 0 -76 38 -94 65 l-17
26 -26 -24 c-50 -47 -91 -61 -176 -61 -64 -1 -88 4 -122 21 -87 47 -133 136
-133 260 l0 74 33 -3 32 -3 6 -80z"/>
<path d="M1916 1669 c-54 -13 -91 -42 -115 -92 -18 -36 -21 -62 -21 -162 l0
-118 124 5 c111 4 129 8 169 31 95 56 113 194 36 282 -43 48 -122 71 -193 54z"/>
<path d="M480 150 l0 -140 40 0 c37 0 40 2 40 29 0 27 3 29 50 35 89 12 136
78 109 155 -16 45 -58 61 -159 61 l-80 0 0 -140z m142 73 c24 -21 23 -58 -3
-84 -35 -35 -54 -22 -57 44 -3 53 -2 57 19 57 12 0 31 -7 41 -17z"/>
<path d="M760 150 l0 -140 39 0 40 0 3 53 3 52 43 3 42 3 0 -55 0 -56 45 0 45
0 0 140 0 140 -45 0 -45 0 0 -55 0 -55 -45 0 -45 0 0 55 0 55 -40 0 -40 0 0
-140z"/>
<path d="M1080 150 l0 -140 45 0 45 0 0 140 0 140 -45 0 -45 0 0 -140z"/>
<path d="M1220 150 l0 -140 79 0 c63 0 80 3 85 16 13 35 7 44 -34 44 l-40 0 0
110 0 110 -45 0 -45 0 0 -140z"/>
<path d="M1420 150 l0 -140 45 0 45 0 0 140 0 140 -45 0 -45 0 0 -140z"/>
<path d="M1570 150 l0 -140 45 0 c43 0 45 1 45 29 0 26 4 29 45 35 84 13 129
77 105 150 -16 48 -58 66 -159 66 l-81 0 0 -140z m144 74 c22 -21 20 -60 -4
-84 -37 -37 -50 -26 -50 40 0 53 2 60 19 60 11 0 27 -7 35 -16z"/>
<path d="M1880 277 c-32 -16 -47 -58 -34 -94 6 -20 25 -36 67 -56 43 -20 57
-32 55 -45 -3 -13 -14 -17 -48 -17 -25 0 -55 4 -68 8 -21 8 -22 6 -16 -20 10
-41 10 -41 59 -49 97 -14 165 23 165 91 0 41 -20 62 -82 85 -31 11 -43 21 -43
35 0 18 6 20 53 18 53 -2 53 -2 50 25 -3 26 -5 27 -68 30 -38 1 -75 -3 -90
-11z"/>
</g>
</svg>
